<svg xmlns="http://www.w3.org/2000/svg" xmlns:xlink="http://www.w3.org/1999/xlink" xmlns:serif="http://www.serif.com/" width="100%" height="100%" viewBox="0 0 1189 818" version="1.1" xml:space="preserve" style="fill-rule:evenodd;clip-rule:evenodd;stroke-linejoin:round;stroke-miterlimit:2;">
    <g transform="matrix(1,0,0,1,-22,0)">
        <circle cx="729.5" cy="439.5" r="32.5" style="fill:#d7142b;"/>
    </g>
    <path d="M990,386C982,386 963,424 960,424L1043,424L1043,386L990,386" style="fill:#d7142b;"/>
    <path d="M950,443C943,443 919.341,482 914,482L1043,482L1043,443L950,443" style="fill:#d7142b;"/>
    <path d="M707,362C760,362 766,482 853,482C895.31,482 919.212,450.22 939,420C958.498,390.223 974.096,362 987,362L1044,362C1045.31,362 1044.21,362 1044.03,362L1044,362L1044,324C1044,324 978,323.771 978,324C930,324 899,443 853,443C802,443 794,324 706,324C700.685,324 695.35,324.44 690.111,325.336C656.915,331.019 637.242,356.793 620.3,383.5C606.777,404.817 592.021,443 561,443C557.863,442.857 554.873,442.11 552.038,440.922C542.585,436.961 534.855,428.107 529.161,420.466C519.439,407.416 511.116,393.373 501.678,380.117C480.741,350.71 454.394,323.876 416,324C410.798,324.017 405.575,324.443 400.45,325.336C357.684,332.793 338.256,372.746 316.477,405.348C304.549,423.203 286.45,449.683 260.652,441.664C251.466,438.808 243.057,431.559 236.924,424.406C220.017,404.686 207.244,382.34 191.685,361.652C180.272,346.476 163.806,324 142,324C142,324 121,322.334 121,345C121,346.992 121.757,351.872 124,356C125.773,359.263 128.769,361.769 131,364C133.49,366.49 154.784,377.538 167,397C189.12,432.242 214.215,482 268,482C355,482 365,362 415,362C465,362 470,482 563,482C650,482 651,362 707,362" style="fill:#d7142b;"/>
</svg>